<mxfile host="app.diagrams.net" modified="2021-05-30T06:33:05.242Z" agent="5.0 (Macintosh; Intel Mac OS X 10_15_7) AppleWebKit/605.1.15 (KHTML, like Gecko) Version/14.1.1 Safari/605.1.15" etag="cWgrcOi-VXp7nXrp5gQC" version="14.7.3" type="github">
  <diagram name="Page-1" id="6133507b-19e7-1e82-6fc7-422aa6c4b21f">
    <mxGraphModel dx="1107" dy="814" grid="1" gridSize="10" guides="1" tooltips="1" connect="1" arrows="1" fold="1" page="1" pageScale="1" pageWidth="1100" pageHeight="850" background="#F4F1DE" math="0" shadow="0">
      <root>
        <mxCell id="0" />
        <mxCell id="1" parent="0" />
        <mxCell id="4b7hiU9GkDOYzhKlwPfX-1" value="onuwf.go" style="swimlane;fontStyle=1;align=center;verticalAlign=top;childLayout=stackLayout;horizontal=1;startSize=26;horizontalStack=0;resizeParent=1;resizeParentMax=0;resizeLast=0;collapsible=1;marginBottom=0;fontColor=#393C56;strokeColor=#E07A5F;fillColor=#F2CC8F;rounded=1;" vertex="1" parent="1">
          <mxGeometry x="50" y="30" width="250" height="136" as="geometry" />
        </mxCell>
        <mxCell id="4b7hiU9GkDOYzhKlwPfX-2" value="+ isInGame : map[string]game&#xa;+ isUserIn : map[string]bool" style="text;strokeColor=none;fillColor=none;align=left;verticalAlign=top;spacingLeft=4;spacingRight=4;overflow=hidden;rotatable=0;points=[[0,0.5],[1,0.5]];portConstraint=eastwest;fontColor=#393C56;rounded=1;" vertex="1" parent="4b7hiU9GkDOYzhKlwPfX-1">
          <mxGeometry y="26" width="250" height="44" as="geometry" />
        </mxCell>
        <mxCell id="4b7hiU9GkDOYzhKlwPfX-3" value="" style="line;strokeWidth=1;fillColor=none;align=left;verticalAlign=middle;spacingTop=-1;spacingLeft=3;spacingRight=3;rotatable=0;labelPosition=right;points=[];portConstraint=eastwest;strokeColor=#E07A5F;fontColor=#393C56;labelBackgroundColor=#F4F1DE;rounded=1;" vertex="1" parent="4b7hiU9GkDOYzhKlwPfX-1">
          <mxGeometry y="70" width="250" height="8" as="geometry" />
        </mxCell>
        <mxCell id="4b7hiU9GkDOYzhKlwPfX-4" value="+ messageCreate(session, m_create)&#xa;+ messageReactionAdd(session, r_add)&#xa;+ startGame(m)" style="text;strokeColor=none;fillColor=none;align=left;verticalAlign=top;spacingLeft=4;spacingRight=4;overflow=hidden;rotatable=0;points=[[0,0.5],[1,0.5]];portConstraint=eastwest;fontColor=#393C56;rounded=1;" vertex="1" parent="4b7hiU9GkDOYzhKlwPfX-1">
          <mxGeometry y="78" width="250" height="58" as="geometry" />
        </mxCell>
        <mxCell id="4b7hiU9GkDOYzhKlwPfX-5" value="game struct" style="swimlane;fontStyle=1;align=center;verticalAlign=top;childLayout=stackLayout;horizontal=1;startSize=26;horizontalStack=0;resizeParent=1;resizeParentMax=0;resizeLast=0;collapsible=1;marginBottom=0;fontColor=#393C56;strokeColor=#E07A5F;fillColor=#F2CC8F;rounded=1;" vertex="1" parent="1">
          <mxGeometry x="380" y="170" width="310" height="400" as="geometry" />
        </mxCell>
        <mxCell id="4b7hiU9GkDOYzhKlwPfX-6" value="+ guildID : string&#xa;+ chanID : string&#xa;+ messageID : string&#xa;+ masterID : string&#xa;+ userList : []user&#xa;+ roleView : []role&#xa;+ roleSeq : []role&#xa;+ curState : state&#xa;+ curRoleIdxTable : [][]int&#xa;+ oriRoleIdxTable : [][]int&#xa;+ disRole : []role&#xa;+ logMsg : []string&#xa;+ session : *discordgo.Session" style="text;strokeColor=none;fillColor=none;align=left;verticalAlign=top;spacingLeft=4;spacingRight=4;overflow=hidden;rotatable=0;points=[[0,0.5],[1,0.5]];portConstraint=eastwest;fontColor=#393C56;rounded=1;" vertex="1" parent="4b7hiU9GkDOYzhKlwPfX-5">
          <mxGeometry y="26" width="310" height="194" as="geometry" />
        </mxCell>
        <mxCell id="4b7hiU9GkDOYzhKlwPfX-7" value="" style="line;strokeWidth=1;fillColor=none;align=left;verticalAlign=middle;spacingTop=-1;spacingLeft=3;spacingRight=3;rotatable=0;labelPosition=right;points=[];portConstraint=eastwest;strokeColor=#E07A5F;fontColor=#393C56;labelBackgroundColor=#F4F1DE;rounded=1;" vertex="1" parent="4b7hiU9GkDOYzhKlwPfX-5">
          <mxGeometry y="220" width="310" height="8" as="geometry" />
        </mxCell>
        <mxCell id="4b7hiU9GkDOYzhKlwPfX-8" value="+ messageCreate(session, m_create)&#xa;+ messageReactionAdd(session, r_add)&#xa;+ appendLog(msg string)&#xa;+ getRole(uid string) : role&#xa;+ swapRoleFromUser(uid1, uid2 string)&#xa;+ getDisRole(disRoleIdx int): role&#xa;+ swapRoleFromDiscad(uid string, disRoleIdx int)&#xa;+ getRoleUser(find role) : []user&#xa;+ rotateAllUserRole()&#xa;+ copyRole(destUID, srcUID string)&#xa;+ setPower(power int)" style="text;strokeColor=none;fillColor=none;align=left;verticalAlign=top;spacingLeft=4;spacingRight=4;overflow=hidden;rotatable=0;points=[[0,0.5],[1,0.5]];portConstraint=eastwest;fontColor=#393C56;rounded=1;" vertex="1" parent="4b7hiU9GkDOYzhKlwPfX-5">
          <mxGeometry y="228" width="310" height="172" as="geometry" />
        </mxCell>
        <mxCell id="4b7hiU9GkDOYzhKlwPfX-10" value="werewolf struct" style="swimlane;fontStyle=1;align=center;verticalAlign=top;childLayout=stackLayout;horizontal=1;startSize=26;horizontalStack=0;resizeParent=1;resizeParentMax=0;resizeLast=0;collapsible=1;marginBottom=0;fontColor=#393C56;strokeColor=#E07A5F;fillColor=#F2CC8F;rounded=1;" vertex="1" parent="1">
          <mxGeometry x="450" y="640" width="160" height="140" as="geometry">
            <mxRectangle x="750" y="320" width="120" height="26" as="alternateBounds" />
          </mxGeometry>
        </mxCell>
        <mxCell id="4b7hiU9GkDOYzhKlwPfX-11" value="+ roleName : string&#xa;+ roleGuide : []string&#xa;+ max : int&#xa;+ faction: string" style="text;strokeColor=none;fillColor=none;align=left;verticalAlign=top;spacingLeft=4;spacingRight=4;overflow=hidden;rotatable=0;points=[[0,0.5],[1,0.5]];portConstraint=eastwest;fontColor=#393C56;rounded=1;" vertex="1" parent="4b7hiU9GkDOYzhKlwPfX-10">
          <mxGeometry y="26" width="160" height="64" as="geometry" />
        </mxCell>
        <mxCell id="4b7hiU9GkDOYzhKlwPfX-12" value="" style="line;strokeWidth=1;fillColor=none;align=left;verticalAlign=middle;spacingTop=-1;spacingLeft=3;spacingRight=3;rotatable=0;labelPosition=right;points=[];portConstraint=eastwest;strokeColor=#E07A5F;fontColor=#393C56;labelBackgroundColor=#F4F1DE;rounded=1;" vertex="1" parent="4b7hiU9GkDOYzhKlwPfX-10">
          <mxGeometry y="90" width="160" height="8" as="geometry" />
        </mxCell>
        <mxCell id="4b7hiU9GkDOYzhKlwPfX-13" value="+ String() : string&#xa;+ Action()" style="text;strokeColor=none;fillColor=none;align=left;verticalAlign=top;spacingLeft=4;spacingRight=4;overflow=hidden;rotatable=0;points=[[0,0.5],[1,0.5]];portConstraint=eastwest;fontColor=#393C56;rounded=1;" vertex="1" parent="4b7hiU9GkDOYzhKlwPfX-10">
          <mxGeometry y="98" width="160" height="42" as="geometry" />
        </mxCell>
        <mxCell id="4b7hiU9GkDOYzhKlwPfX-14" value="&lt;p style=&quot;margin: 0px ; margin-top: 4px ; text-align: center&quot;&gt;&lt;i&gt;&amp;lt;&amp;lt;Interface&amp;gt;&amp;gt;&lt;/i&gt;&lt;br&gt;&lt;b&gt;role interface&lt;/b&gt;&lt;/p&gt;&lt;hr size=&quot;1&quot;&gt;&lt;p style=&quot;margin: 0px ; margin-left: 4px&quot;&gt;&lt;span style=&quot;color: rgb(0 , 0 , 0)&quot;&gt;+ roleName : string&lt;/span&gt;&lt;br style=&quot;padding: 0px ; margin: 0px ; color: rgb(0 , 0 , 0)&quot;&gt;&lt;span style=&quot;color: rgb(0 , 0 , 0)&quot;&gt;+ roleGuide : []string&lt;/span&gt;&lt;br style=&quot;padding: 0px ; margin: 0px ; color: rgb(0 , 0 , 0)&quot;&gt;&lt;span style=&quot;color: rgb(0 , 0 , 0)&quot;&gt;+ max : int&lt;/span&gt;&lt;br style=&quot;padding: 0px ; margin: 0px ; color: rgb(0 , 0 , 0)&quot;&gt;&lt;span style=&quot;color: rgb(0 , 0 , 0)&quot;&gt;+ faction: string&lt;/span&gt;&lt;br&gt;&lt;/p&gt;&lt;hr size=&quot;1&quot;&gt;&lt;p style=&quot;margin: 0px ; margin-left: 4px&quot;&gt;+ &amp;nbsp;String() : string&lt;/p&gt;&lt;p style=&quot;margin: 0px 0px 0px 4px&quot;&gt;+ Action(uid1, uid2 string, disRoleIdx int, player *user, g *game)&lt;/p&gt;" style="verticalAlign=top;align=left;overflow=fill;fontSize=12;fontFamily=Helvetica;html=1;fontColor=#393C56;strokeColor=#E07A5F;fillColor=#F2CC8F;rounded=1;" vertex="1" parent="1">
          <mxGeometry x="720" y="330" width="350" height="150" as="geometry" />
        </mxCell>
        <mxCell id="4b7hiU9GkDOYzhKlwPfX-15" value="" style="shape=waypoint;size=6;pointerEvents=1;points=[];fillColor=none;resizable=0;rotatable=0;perimeter=centerPerimeter;snapToPoint=1;fontColor=#393C56;strokeColor=#E07A5F;rounded=1;" vertex="1" parent="1">
          <mxGeometry x="980" y="690" width="40" height="40" as="geometry" />
        </mxCell>
        <mxCell id="4b7hiU9GkDOYzhKlwPfX-16" value="" style="shape=waypoint;size=6;pointerEvents=1;points=[];fillColor=none;resizable=0;rotatable=0;perimeter=centerPerimeter;snapToPoint=1;fontColor=#393C56;strokeColor=#E07A5F;rounded=1;" vertex="1" parent="1">
          <mxGeometry x="960" y="690" width="40" height="40" as="geometry" />
        </mxCell>
        <mxCell id="4b7hiU9GkDOYzhKlwPfX-17" value="" style="shape=waypoint;size=6;pointerEvents=1;points=[];fillColor=none;resizable=0;rotatable=0;perimeter=centerPerimeter;snapToPoint=1;fontColor=#393C56;strokeColor=#E07A5F;rounded=1;" vertex="1" parent="1">
          <mxGeometry x="940" y="690" width="40" height="40" as="geometry" />
        </mxCell>
        <mxCell id="4b7hiU9GkDOYzhKlwPfX-18" value="seer struct" style="swimlane;fontStyle=1;align=center;verticalAlign=top;childLayout=stackLayout;horizontal=1;startSize=26;horizontalStack=0;resizeParent=1;resizeParentMax=0;resizeLast=0;collapsible=1;marginBottom=0;fontColor=#393C56;strokeColor=#E07A5F;fillColor=#F2CC8F;rounded=1;" vertex="1" parent="1">
          <mxGeometry x="610" y="640" width="160" height="140" as="geometry">
            <mxRectangle x="910" y="320" width="90" height="26" as="alternateBounds" />
          </mxGeometry>
        </mxCell>
        <mxCell id="4b7hiU9GkDOYzhKlwPfX-19" value="+ roleName : string&#xa;+ roleGuide : []string&#xa;+ max : int&#xa;+ faction: string" style="text;strokeColor=none;fillColor=none;align=left;verticalAlign=top;spacingLeft=4;spacingRight=4;overflow=hidden;rotatable=0;points=[[0,0.5],[1,0.5]];portConstraint=eastwest;fontColor=#393C56;rounded=1;" vertex="1" parent="4b7hiU9GkDOYzhKlwPfX-18">
          <mxGeometry y="26" width="160" height="64" as="geometry" />
        </mxCell>
        <mxCell id="4b7hiU9GkDOYzhKlwPfX-20" value="" style="line;strokeWidth=1;fillColor=none;align=left;verticalAlign=middle;spacingTop=-1;spacingLeft=3;spacingRight=3;rotatable=0;labelPosition=right;points=[];portConstraint=eastwest;strokeColor=#E07A5F;fontColor=#393C56;labelBackgroundColor=#F4F1DE;rounded=1;" vertex="1" parent="4b7hiU9GkDOYzhKlwPfX-18">
          <mxGeometry y="90" width="160" height="8" as="geometry" />
        </mxCell>
        <mxCell id="4b7hiU9GkDOYzhKlwPfX-21" value="+ String() : string&#xa;+ Action()" style="text;strokeColor=none;fillColor=none;align=left;verticalAlign=top;spacingLeft=4;spacingRight=4;overflow=hidden;rotatable=0;points=[[0,0.5],[1,0.5]];portConstraint=eastwest;fontColor=#393C56;rounded=1;" vertex="1" parent="4b7hiU9GkDOYzhKlwPfX-18">
          <mxGeometry y="98" width="160" height="42" as="geometry" />
        </mxCell>
        <mxCell id="4b7hiU9GkDOYzhKlwPfX-26" value="robber struct" style="swimlane;fontStyle=1;align=center;verticalAlign=top;childLayout=stackLayout;horizontal=1;startSize=26;horizontalStack=0;resizeParent=1;resizeParentMax=0;resizeLast=0;collapsible=1;marginBottom=0;fontColor=#393C56;strokeColor=#E07A5F;fillColor=#F2CC8F;rounded=1;" vertex="1" parent="1">
          <mxGeometry x="770" y="640" width="160" height="140" as="geometry">
            <mxRectangle x="750" y="460" width="110" height="26" as="alternateBounds" />
          </mxGeometry>
        </mxCell>
        <mxCell id="4b7hiU9GkDOYzhKlwPfX-27" value="+ roleName : string&#xa;+ roleGuide : []string&#xa;+ max : int&#xa;+ faction: string" style="text;strokeColor=none;fillColor=none;align=left;verticalAlign=top;spacingLeft=4;spacingRight=4;overflow=hidden;rotatable=0;points=[[0,0.5],[1,0.5]];portConstraint=eastwest;fontColor=#393C56;rounded=1;" vertex="1" parent="4b7hiU9GkDOYzhKlwPfX-26">
          <mxGeometry y="26" width="160" height="64" as="geometry" />
        </mxCell>
        <mxCell id="4b7hiU9GkDOYzhKlwPfX-28" value="" style="line;strokeWidth=1;fillColor=none;align=left;verticalAlign=middle;spacingTop=-1;spacingLeft=3;spacingRight=3;rotatable=0;labelPosition=right;points=[];portConstraint=eastwest;strokeColor=#E07A5F;fontColor=#393C56;labelBackgroundColor=#F4F1DE;rounded=1;" vertex="1" parent="4b7hiU9GkDOYzhKlwPfX-26">
          <mxGeometry y="90" width="160" height="8" as="geometry" />
        </mxCell>
        <mxCell id="4b7hiU9GkDOYzhKlwPfX-29" value="+ String() : string&#xa;+ Action()" style="text;strokeColor=none;fillColor=none;align=left;verticalAlign=top;spacingLeft=4;spacingRight=4;overflow=hidden;rotatable=0;points=[[0,0.5],[1,0.5]];portConstraint=eastwest;fontColor=#393C56;rounded=1;" vertex="1" parent="4b7hiU9GkDOYzhKlwPfX-26">
          <mxGeometry y="98" width="160" height="42" as="geometry" />
        </mxCell>
        <mxCell id="4b7hiU9GkDOYzhKlwPfX-30" value="&lt;p style=&quot;margin: 0px ; margin-top: 4px ; text-align: center&quot;&gt;&lt;i&gt;&amp;lt;&amp;lt;Interface&amp;gt;&amp;gt;&lt;/i&gt;&lt;br&gt;&lt;b&gt;state interface&lt;/b&gt;&lt;/p&gt;&lt;hr size=&quot;1&quot;&gt;&lt;p style=&quot;margin: 0px ; margin-left: 4px&quot;&gt;+ pressNumBtn(session, m_reaction, int)&lt;/p&gt;&lt;p style=&quot;margin: 0px ; margin-left: 4px&quot;&gt;+ pressDisBtn(session, m_reaction)&lt;/p&gt;&lt;p style=&quot;margin: 0px ; margin-left: 4px&quot;&gt;+ pressYesBtn(session, m_reaction)&lt;/p&gt;&lt;p style=&quot;margin: 0px ; margin-left: 4px&quot;&gt;+ pressNoBtn(session, m_reaction)&lt;/p&gt;&lt;p style=&quot;margin: 0px ; margin-left: 4px&quot;&gt;+ pressDirBtn(session, m_reaction, int dir)&lt;/p&gt;&lt;p style=&quot;margin: 0px ; margin-left: 4px&quot;&gt;+ sendFinish(session, m_create)&lt;/p&gt;" style="verticalAlign=top;align=left;overflow=fill;fontSize=12;fontFamily=Helvetica;html=1;fontColor=#393C56;strokeColor=#E07A5F;fillColor=#F2CC8F;rounded=1;" vertex="1" parent="1">
          <mxGeometry x="70" y="310" width="240" height="140" as="geometry" />
        </mxCell>
        <mxCell id="4b7hiU9GkDOYzhKlwPfX-31" value="user struct" style="swimlane;fontStyle=1;align=center;verticalAlign=top;childLayout=stackLayout;horizontal=1;startSize=26;horizontalStack=0;resizeParent=1;resizeParentMax=0;resizeLast=0;collapsible=1;marginBottom=0;fontColor=#393C56;strokeColor=#E07A5F;fillColor=#F2CC8F;rounded=1;" vertex="1" parent="1">
          <mxGeometry x="750" y="166" width="140" height="100" as="geometry" />
        </mxCell>
        <mxCell id="4b7hiU9GkDOYzhKlwPfX-32" value="+ userID : string&#xa;+ nick : string&#xa;+ chanID string&#xa;+ dbChanID : string" style="text;strokeColor=none;fillColor=none;align=left;verticalAlign=top;spacingLeft=4;spacingRight=4;overflow=hidden;rotatable=0;points=[[0,0.5],[1,0.5]];portConstraint=eastwest;fontColor=#393C56;rounded=1;" vertex="1" parent="4b7hiU9GkDOYzhKlwPfX-31">
          <mxGeometry y="26" width="140" height="74" as="geometry" />
        </mxCell>
        <mxCell id="4b7hiU9GkDOYzhKlwPfX-35" value="StatePrepare struct" style="swimlane;fontStyle=1;align=center;verticalAlign=top;childLayout=stackLayout;horizontal=1;startSize=26;horizontalStack=0;resizeParent=1;resizeParentMax=0;resizeLast=0;collapsible=1;marginBottom=0;fontColor=#393C56;strokeColor=#E07A5F;fillColor=#F2CC8F;rounded=1;" vertex="1" parent="1">
          <mxGeometry x="70" y="510" width="240" height="130" as="geometry" />
        </mxCell>
        <mxCell id="4b7hiU9GkDOYzhKlwPfX-38" value="+ pressNumBtn(session, m_reaction, int)&#xa;+ pressDisBtn(session, m_reaction)&#xa;+ pressYesBtn(session, m_reaction)&#xa;+ pressNoBtn(session, m_reaction)&#xa;+ pressDirBtn(session, m_reaction, int dir)&#xa;+ sendFinish(session, m_create)" style="text;strokeColor=none;fillColor=none;align=left;verticalAlign=top;spacingLeft=4;spacingRight=4;overflow=hidden;rotatable=0;points=[[0,0.5],[1,0.5]];portConstraint=eastwest;fontColor=#393C56;rounded=1;" vertex="1" parent="4b7hiU9GkDOYzhKlwPfX-35">
          <mxGeometry y="26" width="240" height="104" as="geometry" />
        </mxCell>
        <mxCell id="4b7hiU9GkDOYzhKlwPfX-42" value="&lt;b&gt;StatePlayable struct&lt;/b&gt;" style="whiteSpace=wrap;html=1;fontColor=#393C56;strokeColor=#E07A5F;fillColor=#F2CC8F;rounded=1;" vertex="1" parent="1">
          <mxGeometry x="70" y="640" width="240" height="20" as="geometry" />
        </mxCell>
        <mxCell id="4b7hiU9GkDOYzhKlwPfX-43" value="&lt;b&gt;StateActionSentinel struct&lt;/b&gt;" style="whiteSpace=wrap;html=1;fontColor=#393C56;strokeColor=#E07A5F;fillColor=#F2CC8F;rounded=1;" vertex="1" parent="1">
          <mxGeometry x="70" y="660" width="240" height="20" as="geometry" />
        </mxCell>
        <mxCell id="4b7hiU9GkDOYzhKlwPfX-44" value="&lt;b&gt;StateActionDoppelganger struct&lt;/b&gt;" style="whiteSpace=wrap;html=1;fontColor=#393C56;strokeColor=#E07A5F;fillColor=#F2CC8F;rounded=1;" vertex="1" parent="1">
          <mxGeometry x="70" y="680" width="240" height="20" as="geometry" />
        </mxCell>
        <mxCell id="4b7hiU9GkDOYzhKlwPfX-45" value="&lt;b&gt;StateActionInGameGroup struct&lt;/b&gt;" style="whiteSpace=wrap;html=1;fontColor=#393C56;strokeColor=#E07A5F;fillColor=#F2CC8F;rounded=1;" vertex="1" parent="1">
          <mxGeometry x="70" y="700" width="240" height="20" as="geometry" />
        </mxCell>
        <mxCell id="4b7hiU9GkDOYzhKlwPfX-46" value="&lt;b&gt;StateActionBeforeVoteGroup struct&lt;/b&gt;" style="whiteSpace=wrap;html=1;fontColor=#393C56;strokeColor=#E07A5F;fillColor=#F2CC8F;rounded=1;" vertex="1" parent="1">
          <mxGeometry x="70" y="720" width="240" height="20" as="geometry" />
        </mxCell>
        <mxCell id="4b7hiU9GkDOYzhKlwPfX-47" value="&lt;b&gt;StateVote&amp;nbsp;struct&lt;/b&gt;" style="whiteSpace=wrap;html=1;fontColor=#393C56;strokeColor=#E07A5F;fillColor=#F2CC8F;rounded=1;" vertex="1" parent="1">
          <mxGeometry x="70" y="740" width="240" height="20" as="geometry" />
        </mxCell>
        <mxCell id="4b7hiU9GkDOYzhKlwPfX-49" value="" style="endArrow=block;dashed=1;endFill=0;endSize=12;html=1;fontColor=#393C56;strokeColor=#E07A5F;fillColor=#F2CC8F;exitX=0.5;exitY=0;exitDx=0;exitDy=0;entryX=0.5;entryY=1;entryDx=0;entryDy=0;labelBackgroundColor=#F4F1DE;" edge="1" parent="1" source="4b7hiU9GkDOYzhKlwPfX-35" target="4b7hiU9GkDOYzhKlwPfX-30">
          <mxGeometry width="160" relative="1" as="geometry">
            <mxPoint x="280" y="400" as="sourcePoint" />
            <mxPoint x="440" y="400" as="targetPoint" />
          </mxGeometry>
        </mxCell>
        <mxCell id="4b7hiU9GkDOYzhKlwPfX-52" value="have" style="endArrow=open;endFill=1;endSize=12;html=1;fontColor=#393C56;strokeColor=#E07A5F;fillColor=#F2CC8F;entryX=0.229;entryY=-0.005;entryDx=0;entryDy=0;entryPerimeter=0;labelBackgroundColor=#F4F1DE;" edge="1" parent="1" source="4b7hiU9GkDOYzhKlwPfX-1" target="4b7hiU9GkDOYzhKlwPfX-5">
          <mxGeometry width="160" relative="1" as="geometry">
            <mxPoint x="260" y="400" as="sourcePoint" />
            <mxPoint x="420" y="400" as="targetPoint" />
            <Array as="points">
              <mxPoint x="451" y="100" />
            </Array>
          </mxGeometry>
        </mxCell>
        <mxCell id="4b7hiU9GkDOYzhKlwPfX-53" value="0.." style="edgeLabel;html=1;align=center;verticalAlign=middle;resizable=0;points=[];fontColor=#393C56;labelBackgroundColor=#F4F1DE;rounded=1;" vertex="1" connectable="0" parent="4b7hiU9GkDOYzhKlwPfX-52">
          <mxGeometry x="0.7708" y="5" relative="1" as="geometry">
            <mxPoint as="offset" />
          </mxGeometry>
        </mxCell>
        <mxCell id="4b7hiU9GkDOYzhKlwPfX-55" value="have" style="endArrow=open;endFill=1;endSize=12;html=1;fontColor=#393C56;strokeColor=#E07A5F;fillColor=#F2CC8F;entryX=0.25;entryY=0;entryDx=0;entryDy=0;labelBackgroundColor=#F4F1DE;" edge="1" parent="1" target="4b7hiU9GkDOYzhKlwPfX-14">
          <mxGeometry width="160" relative="1" as="geometry">
            <mxPoint x="690" y="290" as="sourcePoint" />
            <mxPoint x="730" y="480" as="targetPoint" />
            <Array as="points">
              <mxPoint x="808" y="290" />
            </Array>
          </mxGeometry>
        </mxCell>
        <mxCell id="4b7hiU9GkDOYzhKlwPfX-56" value="1" style="edgeLabel;html=1;align=center;verticalAlign=middle;resizable=0;points=[];fontColor=#393C56;labelBackgroundColor=#F4F1DE;rounded=1;" vertex="1" connectable="0" parent="4b7hiU9GkDOYzhKlwPfX-55">
          <mxGeometry x="0.8909" y="6" relative="1" as="geometry">
            <mxPoint as="offset" />
          </mxGeometry>
        </mxCell>
        <mxCell id="4b7hiU9GkDOYzhKlwPfX-57" value="" style="endArrow=open;endFill=1;endSize=12;html=1;fontColor=#393C56;strokeColor=#E07A5F;fillColor=#F2CC8F;exitX=-0.003;exitY=0.339;exitDx=0;exitDy=0;exitPerimeter=0;entryX=0.556;entryY=-0.004;entryDx=0;entryDy=0;entryPerimeter=0;labelBackgroundColor=#F4F1DE;" edge="1" parent="1" source="4b7hiU9GkDOYzhKlwPfX-6" target="4b7hiU9GkDOYzhKlwPfX-30">
          <mxGeometry width="160" relative="1" as="geometry">
            <mxPoint x="290" y="480" as="sourcePoint" />
            <mxPoint x="450" y="480" as="targetPoint" />
            <Array as="points">
              <mxPoint x="203" y="262" />
            </Array>
          </mxGeometry>
        </mxCell>
        <mxCell id="4b7hiU9GkDOYzhKlwPfX-59" value="have" style="edgeLabel;html=1;align=center;verticalAlign=middle;resizable=0;points=[];fontColor=#393C56;labelBackgroundColor=#F4F1DE;rounded=1;" vertex="1" connectable="0" parent="4b7hiU9GkDOYzhKlwPfX-57">
          <mxGeometry x="-0.1237" y="2" relative="1" as="geometry">
            <mxPoint as="offset" />
          </mxGeometry>
        </mxCell>
        <mxCell id="4b7hiU9GkDOYzhKlwPfX-61" value="1" style="edgeLabel;html=1;align=center;verticalAlign=middle;resizable=0;points=[];fontColor=#393C56;labelBackgroundColor=#F4F1DE;rounded=1;" vertex="1" connectable="0" parent="4b7hiU9GkDOYzhKlwPfX-57">
          <mxGeometry x="0.912" y="-4" relative="1" as="geometry">
            <mxPoint as="offset" />
          </mxGeometry>
        </mxCell>
        <mxCell id="4b7hiU9GkDOYzhKlwPfX-72" value="" style="endArrow=block;dashed=1;endFill=0;endSize=12;html=1;fontColor=#393C56;strokeColor=#E07A5F;fillColor=#F2CC8F;exitX=0.5;exitY=0;exitDx=0;exitDy=0;entryX=0.5;entryY=1;entryDx=0;entryDy=0;labelBackgroundColor=#F4F1DE;" edge="1" parent="1" source="4b7hiU9GkDOYzhKlwPfX-18" target="4b7hiU9GkDOYzhKlwPfX-14">
          <mxGeometry width="160" relative="1" as="geometry">
            <mxPoint x="190" y="510" as="sourcePoint" />
            <mxPoint x="190" y="450" as="targetPoint" />
            <Array as="points">
              <mxPoint x="690" y="610" />
              <mxPoint x="895" y="610" />
            </Array>
          </mxGeometry>
        </mxCell>
        <mxCell id="4b7hiU9GkDOYzhKlwPfX-73" value="have" style="endArrow=open;endFill=1;endSize=12;html=1;fontColor=#393C56;strokeColor=#E07A5F;fillColor=#F2CC8F;labelBackgroundColor=#F4F1DE;exitX=0.7;exitY=-0.003;exitDx=0;exitDy=0;exitPerimeter=0;entryX=0.5;entryY=0;entryDx=0;entryDy=0;" edge="1" parent="1" source="4b7hiU9GkDOYzhKlwPfX-5" target="4b7hiU9GkDOYzhKlwPfX-31">
          <mxGeometry width="160" relative="1" as="geometry">
            <mxPoint x="630" y="150" as="sourcePoint" />
            <mxPoint x="750" y="220" as="targetPoint" />
            <Array as="points">
              <mxPoint x="597" y="110" />
              <mxPoint x="820" y="110" />
            </Array>
          </mxGeometry>
        </mxCell>
        <mxCell id="4b7hiU9GkDOYzhKlwPfX-74" value="1" style="edgeLabel;html=1;align=center;verticalAlign=middle;resizable=0;points=[];fontColor=#393C56;labelBackgroundColor=#F4F1DE;rounded=1;" vertex="1" connectable="0" parent="4b7hiU9GkDOYzhKlwPfX-73">
          <mxGeometry x="0.8909" y="6" relative="1" as="geometry">
            <mxPoint as="offset" />
          </mxGeometry>
        </mxCell>
      </root>
    </mxGraphModel>
  </diagram>
</mxfile>
